<?xml version="1.0" standalone="no"?>
<!DOCTYPE svg PUBLIC "-//W3C//DTD SVG 20010904//EN"
 "http://www.w3.org/TR/2001/REC-SVG-20010904/DTD/svg10.dtd">
<svg version="1.0" xmlns="http://www.w3.org/2000/svg"
 width="1000.000000pt" height="500.000000pt" viewBox="0 0 1000.000000 500.000000"
 preserveAspectRatio="xMidYMid meet">

<g transform="translate(0.000000,500.000000) scale(0.100000,-0.100000)"
fill="#000000" stroke="none">
<path d="M7519 4225 c-15 -8 -66 -26 -114 -40 -101 -29 -175 -60 -175 -73 0
-5 15 -12 33 -15 55 -9 126 -48 154 -84 41 -53 42 -116 3 -249 -43 -148 -49
-264 -22 -396 36 -174 115 -302 287 -467 l96 -91 -33 -63 -33 -62 -78 -6
c-116 -10 -160 -25 -182 -62 -34 -58 -138 -188 -145 -180 -4 5 -37 47 -74 96
l-67 87 -121 0 c-95 0 -118 -3 -111 -12 6 -7 65 -82 132 -166 66 -85 121 -157
121 -160 0 -4 -59 -81 -131 -172 -72 -91 -133 -168 -135 -172 -3 -5 48 -8 113
-8 l119 0 74 100 c41 55 77 100 80 100 3 0 39 -45 80 -100 l75 -100 118 0 c64
0 117 3 117 8 0 4 -59 80 -130 170 -72 89 -130 167 -130 173 0 6 57 83 127
171 l126 161 96 -7 c82 -6 154 -19 234 -42 16 -5 18 -1 15 28 -3 31 -7 34 -70
55 -37 13 -99 26 -138 29 l-72 7 49 49 49 49 69 -22 c39 -11 75 -26 82 -32 6
-7 48 -127 93 -267 94 -290 122 -353 181 -403 66 -57 198 -92 185 -49 -42 140
-111 381 -135 471 l-30 113 29 -4 c17 -3 30 -3 30 -1 0 3 -25 84 -55 182 -119
389 -225 666 -355 936 -90 186 -93 193 -120 304 -23 92 -47 146 -77 173 -57
51 -178 74 -234 43z m138 -75 c47 -21 78 -62 93 -125 6 -22 23 -80 39 -128
l29 -89 -30 29 c-16 15 -52 75 -80 132 -61 128 -82 151 -140 151 -24 0 -50 5
-58 10 -13 9 -12 12 4 25 27 21 93 18 143 -5z m-39 -92 c15 -15 -3 -48 -27
-48 -24 0 -45 25 -37 45 6 18 47 20 64 3z m182 -301 c24 -12 50 -33 59 -47 16
-23 15 -23 -34 5 -57 34 -130 38 -182 12 -42 -22 -89 -81 -108 -135 -63 -187
9 -409 211 -646 30 -36 50 -66 44 -66 -22 0 -157 147 -204 223 -73 117 -108
227 -108 341 0 247 158 400 322 313z m2 -103 c48 -25 127 -103 169 -167 36
-55 76 -153 67 -163 -10 -9 -89 58 -137 116 -56 66 -61 69 -32 12 29 -57 95
-126 144 -152 42 -22 87 -83 73 -98 -9 -8 -132 47 -195 88 -114 74 -212 200
-227 291 -12 74 61 113 138 73z m-28 -410 c76 -95 218 -232 343 -332 86 -69
92 -77 122 -149 17 -42 29 -78 28 -80 -9 -8 -187 122 -282 205 -232 205 -349
382 -362 545 l-5 72 46 -90 c25 -50 75 -127 110 -171z m123 7 c39 -23 100 -53
137 -67 65 -25 76 -35 96 -88 l10 -26 -38 15 c-123 51 -292 170 -345 242 -63
87 -61 99 5 32 36 -36 96 -85 135 -108z m177 -193 c69 -36 81 -47 98 -86 11
-24 17 -46 14 -49 -7 -7 -201 145 -246 193 l-35 37 45 -27 c25 -15 80 -45 124
-68z m67 -380 c22 -12 39 -25 39 -30 0 -4 42 -126 94 -271 112 -311 110 -307
97 -307 -21 0 -83 64 -106 109 -33 65 -180 521 -168 521 3 0 23 -10 44 -22z"/>
<path d="M1835 2799 c-104 -176 -173 -255 -299 -344 -128 -90 -140 -101 -132
-113 4 -7 55 -51 114 -99 58 -49 124 -107 146 -131 87 -95 164 -214 206 -322
23 -58 57 -103 71 -94 5 3 36 59 70 124 96 190 203 319 381 462 l88 70 -103
73 c-174 124 -274 235 -358 395 -22 42 -52 89 -67 103 l-27 26 -90 -150z"/>
<path d="M5788 2713 l3 -176 -43 39 c-108 100 -294 81 -406 -40 -65 -70 -84
-123 -90 -241 -3 -86 -1 -108 19 -160 31 -84 124 -177 199 -199 110 -33 222
-14 280 47 34 36 42 34 38 -10 l-3 -38 105 0 105 0 3 478 2 477 -107 0 -108 0
3 -177z m-98 -275 c59 -30 90 -84 90 -156 0 -69 -19 -113 -66 -148 -32 -25
-47 -29 -98 -29 -48 0 -68 5 -94 23 -71 51 -94 167 -49 247 25 45 92 85 142
85 17 0 51 -10 75 -22z"/>
<path d="M4083 2626 c-148 -48 -241 -167 -251 -321 -10 -157 59 -278 202 -353
47 -25 60 -27 166 -27 112 0 117 1 178 34 75 41 125 94 161 170 22 48 26 69
26 151 0 82 -4 103 -26 151 -37 79 -90 133 -167 171 -56 28 -77 33 -156 35
-57 2 -107 -2 -133 -11z m197 -191 c34 -17 56 -44 75 -88 56 -134 -64 -275
-202 -238 -66 18 -123 98 -123 173 0 40 30 106 58 131 49 44 130 53 192 22z"/>
<path d="M5029 2627 c-48 -18 -78 -40 -100 -74 l-19 -28 0 48 0 47 -107 0
-108 0 3 -345 3 -345 104 0 105 0 0 199 c0 189 1 200 23 231 41 62 70 75 158
75 l79 0 0 92 c0 50 -4 94 -9 97 -22 14 -99 15 -132 3z"/>
<path d="M2636 2598 c3 -13 55 -167 114 -343 l107 -320 109 0 108 0 57 183
c32 101 59 186 61 188 2 2 30 -82 62 -186 l59 -190 106 0 107 0 116 345 117
345 -113 0 -112 0 -59 -210 c-32 -116 -60 -209 -62 -207 -2 2 -29 96 -61 208
l-58 204 -99 0 -98 0 -58 -204 c-32 -112 -60 -205 -62 -208 -3 -2 -8 9 -11 24
-4 15 -30 110 -58 211 l-51 182 -114 0 c-114 0 -114 0 -107 -22z"/>
<path d="M6140 2417 c0 -275 16 -351 89 -424 45 -46 98 -67 178 -71 86 -5 127
7 182 54 l41 36 0 -41 0 -41 105 0 105 0 0 345 0 345 -104 0 -105 0 -3 -207
c-3 -187 -5 -211 -23 -242 -53 -89 -186 -94 -232 -8 -15 27 -17 62 -17 245 l0
212 -108 0 -108 0 0 -203z"/>
</g>
</svg>
